_________________________  Visit us at _________________________
  
http://p2pdl.com  ____________________________  http://p2pdl.com

Robot And Frank 2012 BRRip 720p x264 AAC - PRiSTiNE

Genre: Comedy | Crime | Drama | Sci-Fi
Plot: Set in the near future, an ex-jewel thief receives 
a gift from his son: a robot butler programmed to look 
after him. But soon the two companions try their luck 
as a heist team.
Director: Jake Schreier
Stars: Peter Sarsgaard, Frank Langella, Susan Sarandon
Rated: Rated PG-13 for some language

Info: 
http://www.imdb.com/title/tt1990314/

General
Complete name                  : Robot And Frank 2012 BRRip 720p x264 AAC - PRiSTiNE.mp4
Format                         : MPEG-4
Format profile                 : Base Media
Codec ID                       : isom
File size                      : 542 MiB
Duration                       : 1h 29mn
Overall bit rate mode          : Variable
Overall bit rate               : 852 Kbps

Source                         : 720p BluRay PHD (Thanks)

Video
Format/Info                    : Advanced Video Codec
Format profile                 : High 10@L4.1
Duration                       : 1h 29mn
Bit rate                       : 765 Kbps
Width                          : 1 280 pixels
Height                         : 534 pixels
Display aspect ratio           : 2.40:1
Frame rate mode                : Constant
Frame rate                     : 23.976 fps
Color space                    : YUV
Chroma subsampling             : 4:2:0
Bit depth                      : 10 bits
Scan type                      : Progressive
Bits/(Pixel*Frame)             : 0.047
Stream size                    : 487 MiB (90%)
Writing library                : x264 core 129 r2245 bc13772

Audio
Format                         : AAC
Duration                       : 1h 29mn
Bit rate mode                  : Variable
Bit rate                       : 83.9 Kbps
Channel(s)                     : 2 channels
Channel positions              : Front: L R
Sampling rate                  : 48.0 KHz / 24.0 KHz
Compression mode               : Lossy
Stream size                    : 53.4 MiB (10%)
Language                       : English

Subtitle                       : Yes (English)

Screens: 
http://imgr.us/images/8qxhv739ggwzx05shqo.jpg 
http://imgr.us/images/9gotzfeznmtzvnpnmel9.jpg 
http://imgr.us/images/wwenuxaw9o1m48a4xfmx.jpg 
http://imgr.us/images/u7te2oz6mvnbh6fqmav4.jpg

Thumbs: 
http://imgr.us/images/bmfni09r29uft1xxt3ad.jpg
----------------------------------------------------------------------------------------------------
Encoded using revolutionary 10bit encoding, which enables us to provide you more crispier 
and sharper images at small sizes, just make sure you follow our instructions without a fault.
Recommend to you to use latest version of VLC player. Install K-Lite Codec Pack or shark007 codecs
in case of any kind of problem in playback (For non-VLC Media Player users). Alternatively, install
Core AVC codecs, the fastest decoder that there is coupled with Community Center Codec Pack and play
on Windows Media Player Classic. Check sample to be sure.
Enjoy!